# xmcd
#
# Track frame offsets: 
#        150
#        13674
#        26164
#        37680
#        51216
#        65102
#        77675
#        90538
#        103548
#        116874
#        132566
#        146453
#        158792
#        170271
#        182580
#        194637
#        205525
#        217625
#        229929
#        241794
#        253954
#        268257
#        283391
#        299016
#
# Disc length: 4142 seconds
#
# Revision: 0
# Processed by: cddbd v1.5.2PL0 Copyright (c) Steve Scherf et al.
# Submitted via: ExactAudioCopy v0.99pb3
#
DISCID=67102c18
DTITLE=Ida Cox - Complete Recorded Works 1923-1938 (Vol. 4 - 1927-1938
DTITLE=)
DYEAR=1995
DGENRE=Blues
TTITLE0=Pleading Blues
TTITLE1=Lost Man Blues
TTITLE2=Hard Oh Lawd
TTITLE3=Mercy Blues
TTITLE4=Seven Day Blues
TTITLE5=Cold And Blue
TTITLE6=Midnight Hour Blues
TTITLE7=Give Me A Break Blues
TTITLE8=Bone Orchard Blues
TTITLE9=Sobbing Tears Blues
TTITLE10=Brooze Crazy Man Blues
TTITLE11=Broadcasting Blues
TTITLE12=Western Union Blues
TTITLE13=Fogyism
TTITLE14=Separated Blues
TTITLE15=Tree Top Tall Papa
TTITLE16=Marble Stone Blues
TTITLE17=Crow Jane Woman
TTITLE18=Worn Down Daddy Blues
TTITLE19=You Stole My Man
TTITLE20=I'm So Glad
TTITLE21=Jail House Bluse
TTITLE22=Four Day Creep
TTITLE23=Low Down Dirty Shame
EXTD=
EXTT0=
EXTT1=
EXTT2=
EXTT3=
EXTT4=
EXTT5=
EXTT6=
EXTT7=
EXTT8=
EXTT9=
EXTT10=
EXTT11=
EXTT12=
EXTT13=
EXTT14=
EXTT15=
EXTT16=
EXTT17=
EXTT18=
EXTT19=
EXTT20=
EXTT21=
EXTT22=
EXTT23=
PLAYORDER=
